<svg width="16" height="17" viewBox="0 0 16 17" fill="none" xmlns="http://www.w3.org/2000/svg">
<mask id="mask0_3301_470" style="mask-type:luminance" maskUnits="userSpaceOnUse" x="0" y="0" width="16" height="17">
<path d="M15.25 15.75V1.25H0.75V15.75H15.25Z" fill="white" stroke="white" stroke-width="1.5"/>
</mask>
<g mask="url(#mask0_3301_470)">
<path d="M4.48541 0.968752C3.42025 0.968752 2.3985 1.39194 1.64513 2.14519C0.892 2.89847 0.46875 3.92013 0.46875 4.98541C0.46875 11.0859 5.41403 16.0312 11.5146 16.0312C12.5797 16.0312 13.6015 15.6081 14.3548 14.8548C15.108 14.1015 15.5312 13.0799 15.5312 12.0146L10.5104 10.0063L9.50625 12.5167H9.50572C6.45584 12.5167 3.98334 10.0442 3.98334 6.99425V6.99375L6.49375 5.98959L4.48541 0.968752Z" stroke="white" stroke-width="1.5" stroke-miterlimit="10" stroke-linecap="round" stroke-linejoin="round"/>
</g>
</svg>
