<svg width="16" height="17" viewBox="0 0 16 17" fill="none" xmlns="http://www.w3.org/2000/svg">
<g clip-path="url(#clip0_3301_480)">
<path d="M14.9159 11.8744C14.225 10.6805 13.2315 9.67908 12.0428 8.97864C11.5633 8.69604 11.0564 8.46594 10.5315 8.29016C11.6012 7.50464 12.2969 6.2384 12.2969 4.8125C12.2969 2.43457 10.3623 0.5 7.98441 0.5C5.60648 0.5 3.67191 2.43457 3.67191 4.8125C3.67191 6.2384 4.36771 7.50464 5.43729 8.29016C4.91238 8.46594 4.40555 8.69617 3.92606 8.97864C2.73734 9.6792 1.7438 10.6805 1.05289 11.8745C0.940704 12.0681 0.940704 12.3069 1.05289 12.5006C2.44376 14.9039 5.03836 16.5 7.98441 16.5C10.93 16.5 13.5248 14.9044 14.916 12.5006C15.0281 12.3069 15.0281 12.0681 14.9159 11.8744ZM4.92191 4.8125C4.92191 3.12378 6.29568 1.75 7.98441 1.75C9.67313 1.75 11.0469 3.12378 11.0469 4.8125C11.0469 6.50122 9.67313 7.875 7.98441 7.875C6.29568 7.875 4.92191 6.50122 4.92191 4.8125ZM7.98441 15.25C5.69925 15.25 3.5795 14.1018 2.32755 12.1875C2.89676 11.3171 3.66275 10.5847 4.5607 10.0555C5.5939 9.44678 6.77774 9.125 7.98441 9.125C9.19107 9.125 10.3749 9.44678 11.4081 10.0555C12.3061 10.5847 13.0722 11.3173 13.6414 12.1875C12.391 14.0994 10.2722 15.25 7.98441 15.25Z" fill="white"/>
</g>
<defs>
<clipPath id="clip0_3301_480">
<rect width="16" height="16" fill="white" transform="translate(0 0.5)"/>
</clipPath>
</defs>
</svg>
